<svg width="50" height="35" viewBox="0 0 50 35" fill="none" xmlns="http://www.w3.org/2000/svg">
<path d="M49.6851 16.9599C49.6064 16.9116 39.8615 0.080608 25 0C10.1385 0.080608 0.393577 16.9116 0.314861 16.9599L0 17.4919L0.314861 18.0401C0.377834 18.0884 9.91814 34.9194 25 35C40.0976 34.9194 49.6222 18.0884 49.6851 18.0401L50 17.4919L49.6851 16.9599ZM24.7639 31.1147C17.5378 31.0986 11.5712 25.1175 11.5554 17.5081C11.5712 9.89866 17.5378 3.90143 24.7639 3.88531C31.9742 3.90143 37.9566 9.88254 37.9723 17.5081C37.9566 25.1175 31.9742 31.0986 24.7639 31.1147Z" fill="#F9F9F9"/>
<path d="M25 10.7209C21.4578 10.7209 18.4824 13.6711 18.4666 17.508C18.4824 21.3289 21.4578 24.2791 25 24.2952C28.5422 24.2952 31.5176 21.345 31.5334 17.508C31.5176 13.6711 28.5422 10.7209 25 10.7209Z" fill="#F9F9F9"/>
</svg>
