<svg width="17" height="26" viewBox="0 0 17 26" fill="none" xmlns="http://www.w3.org/2000/svg">
<path d="M37.7607 12.5988C37.7009 12.5629 30.2947 0.0598802 19 0C7.70529 0.0598802 0.299118 12.5629 0.239295 12.5988L0 12.994L0.239295 13.4012C0.287154 13.4371 7.53778 25.9401 19 26C30.4742 25.9401 37.7128 13.4371 37.7607 13.4012L38 12.994L37.7607 12.5988ZM18.8205 23.1138C13.3287 23.1018 8.79408 18.6587 8.78212 13.006C8.79408 7.35329 13.3287 2.8982 18.8205 2.88623C24.3004 2.8982 28.847 7.34132 28.8589 13.006C28.847 18.6587 24.3004 23.1018 18.8205 23.1138Z" fill="#F9F9F9"/>
<path d="M19 7.96408C16.3079 7.96408 14.0466 10.1557 14.0346 13.006C14.0466 15.8443 16.3079 18.0359 19 18.0479C21.692 18.0479 23.9534 15.8563 23.9653 13.006C23.9534 10.1557 21.692 7.96408 19 7.96408Z" fill="#F9F9F9"/>
</svg>
