<svg width="18" height="18" viewBox="0 0 18 18" fill="none" xmlns="http://www.w3.org/2000/svg">
<path d="M13.05 16.5C9.98797 16.496 7.05249 15.2779 4.8873 13.1127C2.72211 10.9475 1.50397 8.01203 1.5 4.94999C1.5 4.035 1.86348 3.15748 2.51048 2.51048C3.15748 1.86348 4.035 1.49999 4.95 1.49999C5.14376 1.49852 5.33719 1.5161 5.5275 1.55249C5.71148 1.57972 5.89235 1.62494 6.0675 1.68749C6.19069 1.73072 6.30046 1.80534 6.38596 1.904C6.47146 2.00265 6.52972 2.12192 6.555 2.24999L7.5825 6.74999C7.61019 6.87214 7.60686 6.99928 7.5728 7.11981C7.53874 7.24033 7.47503 7.35041 7.3875 7.43999C7.29 7.54499 7.2825 7.55249 6.36 8.03249C7.09875 9.65314 8.3949 10.9546 10.0125 11.7C10.5 10.77 10.5075 10.7625 10.6125 10.665C10.7021 10.5775 10.8122 10.5138 10.9327 10.4797C11.0532 10.4456 11.1804 10.4423 11.3025 10.47L15.8025 11.4975C15.9265 11.5263 16.0411 11.5861 16.1356 11.6714C16.23 11.7567 16.3012 11.8646 16.3425 11.985C16.4058 12.163 16.4535 12.3462 16.485 12.5325C16.5152 12.721 16.5302 12.9116 16.53 13.1025C16.5162 14.0136 16.1425 14.8822 15.4905 15.5187C14.8385 16.1553 13.9612 16.508 13.05 16.5V16.5Z" fill="#4B7FFB"/>
</svg>
