<svg width="18" height="18" viewBox="0 0 18 18" fill="none" xmlns="http://www.w3.org/2000/svg">
<path d="M14.25 2.25H3.75C3.15326 2.25 2.58097 2.48705 2.15901 2.90901C1.73705 3.33097 1.5 3.90326 1.5 4.5V15.75C1.50023 15.8829 1.53577 16.0133 1.60298 16.128C1.67018 16.2426 1.76665 16.3374 1.8825 16.4025C1.99459 16.466 2.12116 16.4996 2.25 16.5C2.38461 16.5 2.51673 16.4637 2.6325 16.395L6 14.355C6.12447 14.2809 6.26775 14.2444 6.4125 14.25H14.25C14.8467 14.25 15.419 14.0129 15.841 13.591C16.2629 13.169 16.5 12.5967 16.5 12V4.5C16.5 3.90326 16.2629 3.33097 15.841 2.90901C15.419 2.48705 14.8467 2.25 14.25 2.25ZM6 9C5.85166 9 5.70666 8.95601 5.58332 8.8736C5.45999 8.79119 5.36386 8.67406 5.30709 8.53701C5.25032 8.39997 5.23547 8.24917 5.26441 8.10368C5.29335 7.9582 5.36478 7.82456 5.46967 7.71967C5.57456 7.61478 5.7082 7.54335 5.85368 7.51441C5.99917 7.48547 6.14997 7.50033 6.28701 7.55709C6.42406 7.61386 6.54119 7.70999 6.6236 7.83332C6.70601 7.95666 6.75 8.10167 6.75 8.25C6.75 8.44891 6.67098 8.63968 6.53033 8.78033C6.38968 8.92098 6.19891 9 6 9ZM9 9C8.85166 9 8.70666 8.95601 8.58332 8.8736C8.45999 8.79119 8.36386 8.67406 8.30709 8.53701C8.25032 8.39997 8.23547 8.24917 8.26441 8.10368C8.29335 7.9582 8.36478 7.82456 8.46967 7.71967C8.57456 7.61478 8.7082 7.54335 8.85368 7.51441C8.99917 7.48547 9.14997 7.50033 9.28701 7.55709C9.42406 7.61386 9.54119 7.70999 9.6236 7.83332C9.70601 7.95666 9.75 8.10167 9.75 8.25C9.75 8.44891 9.67098 8.63968 9.53033 8.78033C9.38968 8.92098 9.19891 9 9 9ZM12 9C11.8517 9 11.7067 8.95601 11.5833 8.8736C11.46 8.79119 11.3639 8.67406 11.3071 8.53701C11.2503 8.39997 11.2355 8.24917 11.2644 8.10368C11.2934 7.9582 11.3648 7.82456 11.4697 7.71967C11.5746 7.61478 11.7082 7.54335 11.8537 7.51441C11.9992 7.48547 12.15 7.50033 12.287 7.55709C12.4241 7.61386 12.5412 7.70999 12.6236 7.83332C12.706 7.95666 12.75 8.10167 12.75 8.25C12.75 8.44891 12.671 8.63968 12.5303 8.78033C12.3897 8.92098 12.1989 9 12 9Z" fill="#FFB167"/>
</svg>
